<svg width="45" height="45" viewBox="0 0 45 45" fill="none" xmlns="http://www.w3.org/2000/svg">
<circle cx="22.5" cy="22.5" r="22.5" fill="#FF0008"/>
<path fill-rule="evenodd" clip-rule="evenodd" d="M22.4996 14.1941C17.9123 14.1941 14.1936 17.9128 14.1936 22.5001C14.1936 24.1821 14.6918 25.7428 15.5483 27.0486L12.8192 28.8387C11.6245 27.0173 10.9297 24.8374 10.9297 22.5001C10.9297 16.1102 16.1097 10.9302 22.4996 10.9302C28.8895 10.9302 34.0695 16.1102 34.0695 22.5001C34.0695 28.89 28.8895 34.07 22.4996 34.07V30.8061C27.0869 30.8061 30.8056 27.0874 30.8056 22.5001C30.8056 17.9128 27.0869 14.1941 22.4996 14.1941Z" fill="white"/>
<path fill-rule="evenodd" clip-rule="evenodd" d="M24.1311 21.5938V32.6327L34.7113 35.176L33.9484 38.3495L22.1177 35.5056L20.8672 33.9189V21.5938H24.1311Z" fill="white"/>
</svg>
